<mxfile host="app.diagrams.net" modified="2023-01-30T16:23:57.297Z" agent="5.0 (Windows NT 10.0; Win64; x64) AppleWebKit/537.36 (KHTML, like Gecko) Chrome/109.0.0.0 Safari/537.36" version="20.8.5" etag="5VUtgytoJDZ1M9Tqkg0c" type="github">
  <diagram id="bB9_iwyLuRsACjH3lIyL" name="Page-1">
    <mxGraphModel dx="1714" dy="2088" grid="1" gridSize="10" guides="1" tooltips="1" connect="1" arrows="1" fold="1" page="1" pageScale="1" pageWidth="850" pageHeight="1100" math="0" shadow="0">
      <root>
        <mxCell id="0" />
        <mxCell id="1" parent="0" />
        <mxCell id="jjTsNoF9mjSCEiE887Cn-19" style="edgeStyle=orthogonalEdgeStyle;rounded=0;orthogonalLoop=1;jettySize=auto;html=1;exitX=0.5;exitY=1;exitDx=0;exitDy=0;entryX=0.5;entryY=0;entryDx=0;entryDy=0;" edge="1" parent="1" source="jjTsNoF9mjSCEiE887Cn-1" target="jjTsNoF9mjSCEiE887Cn-15">
          <mxGeometry relative="1" as="geometry" />
        </mxCell>
        <mxCell id="jjTsNoF9mjSCEiE887Cn-1" value="credits clc" style="rounded=0;whiteSpace=wrap;html=1;" vertex="1" parent="1">
          <mxGeometry x="160" y="360" width="120" height="60" as="geometry" />
        </mxCell>
        <mxCell id="jjTsNoF9mjSCEiE887Cn-18" style="edgeStyle=orthogonalEdgeStyle;rounded=0;orthogonalLoop=1;jettySize=auto;html=1;exitX=0.5;exitY=1;exitDx=0;exitDy=0;entryX=0.5;entryY=0;entryDx=0;entryDy=0;" edge="1" parent="1" source="jjTsNoF9mjSCEiE887Cn-2" target="jjTsNoF9mjSCEiE887Cn-1">
          <mxGeometry relative="1" as="geometry" />
        </mxCell>
        <mxCell id="jjTsNoF9mjSCEiE887Cn-2" value="credits yours" style="rounded=0;whiteSpace=wrap;html=1;" vertex="1" parent="1">
          <mxGeometry x="160" y="280" width="120" height="60" as="geometry" />
        </mxCell>
        <mxCell id="jjTsNoF9mjSCEiE887Cn-17" style="edgeStyle=orthogonalEdgeStyle;rounded=0;orthogonalLoop=1;jettySize=auto;html=1;exitX=0.5;exitY=1;exitDx=0;exitDy=0;entryX=0.5;entryY=0;entryDx=0;entryDy=0;" edge="1" parent="1" source="jjTsNoF9mjSCEiE887Cn-3" target="jjTsNoF9mjSCEiE887Cn-2">
          <mxGeometry relative="1" as="geometry" />
        </mxCell>
        <mxCell id="jjTsNoF9mjSCEiE887Cn-3" value="credits unity" style="rounded=0;whiteSpace=wrap;html=1;" vertex="1" parent="1">
          <mxGeometry x="160" y="200" width="120" height="60" as="geometry" />
        </mxCell>
        <mxCell id="jjTsNoF9mjSCEiE887Cn-42" style="edgeStyle=orthogonalEdgeStyle;rounded=0;orthogonalLoop=1;jettySize=auto;html=1;exitX=0;exitY=0.5;exitDx=0;exitDy=0;entryX=1;entryY=0.5;entryDx=0;entryDy=0;" edge="1" parent="1" source="jjTsNoF9mjSCEiE887Cn-4" target="jjTsNoF9mjSCEiE887Cn-7">
          <mxGeometry relative="1" as="geometry" />
        </mxCell>
        <mxCell id="jjTsNoF9mjSCEiE887Cn-4" value="Sky level" style="rounded=0;whiteSpace=wrap;html=1;" vertex="1" parent="1">
          <mxGeometry x="420" y="700" width="120" height="60" as="geometry" />
        </mxCell>
        <mxCell id="jjTsNoF9mjSCEiE887Cn-41" style="edgeStyle=orthogonalEdgeStyle;rounded=0;orthogonalLoop=1;jettySize=auto;html=1;exitX=0;exitY=0.5;exitDx=0;exitDy=0;entryX=1;entryY=0.5;entryDx=0;entryDy=0;" edge="1" parent="1" source="jjTsNoF9mjSCEiE887Cn-5" target="jjTsNoF9mjSCEiE887Cn-9">
          <mxGeometry relative="1" as="geometry" />
        </mxCell>
        <mxCell id="jjTsNoF9mjSCEiE887Cn-50" style="edgeStyle=orthogonalEdgeStyle;rounded=0;orthogonalLoop=1;jettySize=auto;html=1;exitX=0.5;exitY=1;exitDx=0;exitDy=0;" edge="1" parent="1" source="jjTsNoF9mjSCEiE887Cn-5" target="jjTsNoF9mjSCEiE887Cn-4">
          <mxGeometry relative="1" as="geometry" />
        </mxCell>
        <mxCell id="jjTsNoF9mjSCEiE887Cn-5" value="Space level" style="rounded=0;whiteSpace=wrap;html=1;" vertex="1" parent="1">
          <mxGeometry x="420" y="620" width="120" height="60" as="geometry" />
        </mxCell>
        <mxCell id="jjTsNoF9mjSCEiE887Cn-6" value="White Void level" style="rounded=0;whiteSpace=wrap;html=1;" vertex="1" parent="1">
          <mxGeometry x="-100" y="700" width="120" height="60" as="geometry" />
        </mxCell>
        <mxCell id="jjTsNoF9mjSCEiE887Cn-43" style="edgeStyle=orthogonalEdgeStyle;rounded=0;orthogonalLoop=1;jettySize=auto;html=1;exitX=0;exitY=0.5;exitDx=0;exitDy=0;" edge="1" parent="1" source="jjTsNoF9mjSCEiE887Cn-7">
          <mxGeometry relative="1" as="geometry">
            <mxPoint x="160" y="730" as="targetPoint" />
          </mxGeometry>
        </mxCell>
        <mxCell id="jjTsNoF9mjSCEiE887Cn-7" value="Girl level" style="rounded=0;whiteSpace=wrap;html=1;" vertex="1" parent="1">
          <mxGeometry x="280" y="700" width="120" height="60" as="geometry" />
        </mxCell>
        <mxCell id="jjTsNoF9mjSCEiE887Cn-46" style="edgeStyle=orthogonalEdgeStyle;rounded=0;orthogonalLoop=1;jettySize=auto;html=1;exitX=0;exitY=0.5;exitDx=0;exitDy=0;entryX=1;entryY=0.5;entryDx=0;entryDy=0;" edge="1" parent="1" source="jjTsNoF9mjSCEiE887Cn-8" target="jjTsNoF9mjSCEiE887Cn-6">
          <mxGeometry relative="1" as="geometry" />
        </mxCell>
        <mxCell id="jjTsNoF9mjSCEiE887Cn-8" value="Boy level" style="rounded=0;whiteSpace=wrap;html=1;" vertex="1" parent="1">
          <mxGeometry x="40" y="700" width="120" height="60" as="geometry" />
        </mxCell>
        <mxCell id="jjTsNoF9mjSCEiE887Cn-44" style="edgeStyle=orthogonalEdgeStyle;rounded=0;orthogonalLoop=1;jettySize=auto;html=1;exitX=0;exitY=0.5;exitDx=0;exitDy=0;entryX=1;entryY=0.5;entryDx=0;entryDy=0;" edge="1" parent="1" source="jjTsNoF9mjSCEiE887Cn-9" target="jjTsNoF9mjSCEiE887Cn-10">
          <mxGeometry relative="1" as="geometry" />
        </mxCell>
        <mxCell id="jjTsNoF9mjSCEiE887Cn-49" style="edgeStyle=orthogonalEdgeStyle;rounded=0;orthogonalLoop=1;jettySize=auto;html=1;exitX=0.5;exitY=1;exitDx=0;exitDy=0;" edge="1" parent="1" source="jjTsNoF9mjSCEiE887Cn-9" target="jjTsNoF9mjSCEiE887Cn-7">
          <mxGeometry relative="1" as="geometry" />
        </mxCell>
        <mxCell id="jjTsNoF9mjSCEiE887Cn-9" value="Grass level" style="rounded=0;whiteSpace=wrap;html=1;" vertex="1" parent="1">
          <mxGeometry x="280" y="620" width="120" height="60" as="geometry" />
        </mxCell>
        <mxCell id="jjTsNoF9mjSCEiE887Cn-45" style="edgeStyle=orthogonalEdgeStyle;rounded=0;orthogonalLoop=1;jettySize=auto;html=1;exitX=0;exitY=0.5;exitDx=0;exitDy=0;entryX=1;entryY=0.5;entryDx=0;entryDy=0;" edge="1" parent="1" source="jjTsNoF9mjSCEiE887Cn-10" target="jjTsNoF9mjSCEiE887Cn-11">
          <mxGeometry relative="1" as="geometry" />
        </mxCell>
        <mxCell id="jjTsNoF9mjSCEiE887Cn-47" style="edgeStyle=orthogonalEdgeStyle;rounded=0;orthogonalLoop=1;jettySize=auto;html=1;exitX=0.5;exitY=1;exitDx=0;exitDy=0;entryX=0.5;entryY=0;entryDx=0;entryDy=0;" edge="1" parent="1" source="jjTsNoF9mjSCEiE887Cn-10" target="jjTsNoF9mjSCEiE887Cn-8">
          <mxGeometry relative="1" as="geometry" />
        </mxCell>
        <mxCell id="jjTsNoF9mjSCEiE887Cn-10" value="Sea level" style="rounded=0;whiteSpace=wrap;html=1;" vertex="1" parent="1">
          <mxGeometry x="40" y="620" width="120" height="60" as="geometry" />
        </mxCell>
        <mxCell id="jjTsNoF9mjSCEiE887Cn-48" style="edgeStyle=orthogonalEdgeStyle;rounded=0;orthogonalLoop=1;jettySize=auto;html=1;exitX=0.5;exitY=1;exitDx=0;exitDy=0;entryX=0.5;entryY=0;entryDx=0;entryDy=0;" edge="1" parent="1" source="jjTsNoF9mjSCEiE887Cn-11" target="jjTsNoF9mjSCEiE887Cn-6">
          <mxGeometry relative="1" as="geometry" />
        </mxCell>
        <mxCell id="jjTsNoF9mjSCEiE887Cn-11" value="Lava level" style="rounded=0;whiteSpace=wrap;html=1;" vertex="1" parent="1">
          <mxGeometry x="-100" y="620" width="120" height="60" as="geometry" />
        </mxCell>
        <mxCell id="jjTsNoF9mjSCEiE887Cn-23" style="edgeStyle=orthogonalEdgeStyle;rounded=0;orthogonalLoop=1;jettySize=auto;html=1;exitX=1;exitY=0.5;exitDx=0;exitDy=0;entryX=0;entryY=0.5;entryDx=0;entryDy=0;" edge="1" parent="1" source="jjTsNoF9mjSCEiE887Cn-12" target="jjTsNoF9mjSCEiE887Cn-16">
          <mxGeometry relative="1" as="geometry" />
        </mxCell>
        <mxCell id="jjTsNoF9mjSCEiE887Cn-26" style="edgeStyle=orthogonalEdgeStyle;rounded=0;orthogonalLoop=1;jettySize=auto;html=1;exitX=1;exitY=0.5;exitDx=0;exitDy=0;entryX=0.5;entryY=0;entryDx=0;entryDy=0;" edge="1" parent="1" source="jjTsNoF9mjSCEiE887Cn-12" target="jjTsNoF9mjSCEiE887Cn-5">
          <mxGeometry relative="1" as="geometry" />
        </mxCell>
        <mxCell id="jjTsNoF9mjSCEiE887Cn-33" style="edgeStyle=orthogonalEdgeStyle;rounded=0;orthogonalLoop=1;jettySize=auto;html=1;exitX=0.5;exitY=1;exitDx=0;exitDy=0;" edge="1" parent="1" source="jjTsNoF9mjSCEiE887Cn-12" target="jjTsNoF9mjSCEiE887Cn-9">
          <mxGeometry relative="1" as="geometry">
            <mxPoint x="220" y="600" as="sourcePoint" />
          </mxGeometry>
        </mxCell>
        <mxCell id="jjTsNoF9mjSCEiE887Cn-34" style="edgeStyle=orthogonalEdgeStyle;rounded=0;orthogonalLoop=1;jettySize=auto;html=1;exitX=0.5;exitY=1;exitDx=0;exitDy=0;entryX=0.5;entryY=0;entryDx=0;entryDy=0;" edge="1" parent="1" source="jjTsNoF9mjSCEiE887Cn-12" target="jjTsNoF9mjSCEiE887Cn-10">
          <mxGeometry relative="1" as="geometry" />
        </mxCell>
        <mxCell id="jjTsNoF9mjSCEiE887Cn-35" style="edgeStyle=orthogonalEdgeStyle;rounded=0;orthogonalLoop=1;jettySize=auto;html=1;exitX=0;exitY=0.5;exitDx=0;exitDy=0;" edge="1" parent="1" source="jjTsNoF9mjSCEiE887Cn-12" target="jjTsNoF9mjSCEiE887Cn-11">
          <mxGeometry relative="1" as="geometry" />
        </mxCell>
        <mxCell id="jjTsNoF9mjSCEiE887Cn-36" style="edgeStyle=orthogonalEdgeStyle;rounded=0;orthogonalLoop=1;jettySize=auto;html=1;exitX=0;exitY=0.5;exitDx=0;exitDy=0;entryX=0;entryY=0.5;entryDx=0;entryDy=0;" edge="1" parent="1" source="jjTsNoF9mjSCEiE887Cn-12" target="jjTsNoF9mjSCEiE887Cn-6">
          <mxGeometry relative="1" as="geometry" />
        </mxCell>
        <mxCell id="jjTsNoF9mjSCEiE887Cn-37" style="edgeStyle=orthogonalEdgeStyle;rounded=0;orthogonalLoop=1;jettySize=auto;html=1;exitX=0.5;exitY=1;exitDx=0;exitDy=0;entryX=1;entryY=0.5;entryDx=0;entryDy=0;" edge="1" parent="1" source="jjTsNoF9mjSCEiE887Cn-12" target="jjTsNoF9mjSCEiE887Cn-8">
          <mxGeometry relative="1" as="geometry" />
        </mxCell>
        <mxCell id="jjTsNoF9mjSCEiE887Cn-38" style="edgeStyle=orthogonalEdgeStyle;rounded=0;orthogonalLoop=1;jettySize=auto;html=1;exitX=0.5;exitY=1;exitDx=0;exitDy=0;entryX=0;entryY=0.5;entryDx=0;entryDy=0;" edge="1" parent="1" source="jjTsNoF9mjSCEiE887Cn-12" target="jjTsNoF9mjSCEiE887Cn-7">
          <mxGeometry relative="1" as="geometry" />
        </mxCell>
        <mxCell id="jjTsNoF9mjSCEiE887Cn-39" style="edgeStyle=orthogonalEdgeStyle;rounded=0;orthogonalLoop=1;jettySize=auto;html=1;exitX=1;exitY=0.5;exitDx=0;exitDy=0;entryX=1;entryY=0.5;entryDx=0;entryDy=0;" edge="1" parent="1" source="jjTsNoF9mjSCEiE887Cn-12" target="jjTsNoF9mjSCEiE887Cn-4">
          <mxGeometry relative="1" as="geometry" />
        </mxCell>
        <mxCell id="jjTsNoF9mjSCEiE887Cn-40" style="edgeStyle=orthogonalEdgeStyle;rounded=0;orthogonalLoop=1;jettySize=auto;html=1;exitX=1;exitY=0.5;exitDx=0;exitDy=0;entryX=1;entryY=0.5;entryDx=0;entryDy=0;" edge="1" parent="1" source="jjTsNoF9mjSCEiE887Cn-12" target="jjTsNoF9mjSCEiE887Cn-5">
          <mxGeometry relative="1" as="geometry" />
        </mxCell>
        <mxCell id="jjTsNoF9mjSCEiE887Cn-12" value="play Level Select" style="rounded=0;whiteSpace=wrap;html=1;" vertex="1" parent="1">
          <mxGeometry x="160" y="520" width="120" height="60" as="geometry" />
        </mxCell>
        <mxCell id="jjTsNoF9mjSCEiE887Cn-13" value="credits" style="rounded=0;whiteSpace=wrap;html=1;" vertex="1" parent="1">
          <mxGeometry x="20" y="440" width="120" height="60" as="geometry" />
        </mxCell>
        <mxCell id="jjTsNoF9mjSCEiE887Cn-14" value="quit" style="rounded=0;whiteSpace=wrap;html=1;" vertex="1" parent="1">
          <mxGeometry x="300" y="440" width="120" height="60" as="geometry" />
        </mxCell>
        <mxCell id="jjTsNoF9mjSCEiE887Cn-20" style="edgeStyle=orthogonalEdgeStyle;rounded=0;orthogonalLoop=1;jettySize=auto;html=1;exitX=0;exitY=0.5;exitDx=0;exitDy=0;entryX=1;entryY=0.5;entryDx=0;entryDy=0;" edge="1" parent="1" source="jjTsNoF9mjSCEiE887Cn-15" target="jjTsNoF9mjSCEiE887Cn-13">
          <mxGeometry relative="1" as="geometry" />
        </mxCell>
        <mxCell id="jjTsNoF9mjSCEiE887Cn-21" style="edgeStyle=orthogonalEdgeStyle;rounded=0;orthogonalLoop=1;jettySize=auto;html=1;exitX=1;exitY=0.5;exitDx=0;exitDy=0;entryX=0;entryY=0.5;entryDx=0;entryDy=0;" edge="1" parent="1" source="jjTsNoF9mjSCEiE887Cn-15" target="jjTsNoF9mjSCEiE887Cn-14">
          <mxGeometry relative="1" as="geometry" />
        </mxCell>
        <mxCell id="jjTsNoF9mjSCEiE887Cn-22" style="edgeStyle=orthogonalEdgeStyle;rounded=0;orthogonalLoop=1;jettySize=auto;html=1;exitX=0.5;exitY=1;exitDx=0;exitDy=0;entryX=0.5;entryY=0;entryDx=0;entryDy=0;" edge="1" parent="1" source="jjTsNoF9mjSCEiE887Cn-15" target="jjTsNoF9mjSCEiE887Cn-12">
          <mxGeometry relative="1" as="geometry" />
        </mxCell>
        <mxCell id="jjTsNoF9mjSCEiE887Cn-15" value="Title Scene" style="rounded=0;whiteSpace=wrap;html=1;" vertex="1" parent="1">
          <mxGeometry x="160" y="440" width="120" height="60" as="geometry" />
        </mxCell>
        <mxCell id="jjTsNoF9mjSCEiE887Cn-24" style="edgeStyle=orthogonalEdgeStyle;rounded=0;orthogonalLoop=1;jettySize=auto;html=1;exitX=0.5;exitY=1;exitDx=0;exitDy=0;entryX=1;entryY=0.5;entryDx=0;entryDy=0;" edge="1" parent="1" source="jjTsNoF9mjSCEiE887Cn-16" target="jjTsNoF9mjSCEiE887Cn-4">
          <mxGeometry relative="1" as="geometry" />
        </mxCell>
        <mxCell id="jjTsNoF9mjSCEiE887Cn-25" style="edgeStyle=orthogonalEdgeStyle;rounded=0;orthogonalLoop=1;jettySize=auto;html=1;exitX=0.5;exitY=1;exitDx=0;exitDy=0;entryX=1;entryY=0.5;entryDx=0;entryDy=0;" edge="1" parent="1" source="jjTsNoF9mjSCEiE887Cn-16" target="jjTsNoF9mjSCEiE887Cn-5">
          <mxGeometry relative="1" as="geometry" />
        </mxCell>
        <mxCell id="jjTsNoF9mjSCEiE887Cn-16" value="random" style="rounded=0;whiteSpace=wrap;html=1;" vertex="1" parent="1">
          <mxGeometry x="600" y="520" width="120" height="60" as="geometry" />
        </mxCell>
        <mxCell id="jjTsNoF9mjSCEiE887Cn-51" value="" style="rounded=0;whiteSpace=wrap;html=1;" vertex="1" parent="1">
          <mxGeometry x="-150" y="880" width="1920" height="1080" as="geometry" />
        </mxCell>
      </root>
    </mxGraphModel>
  </diagram>
</mxfile>
